<?xml version="1.0" encoding="UTF-8"?>
<svg width="80px" height="80px" viewBox="0 0 80 80" version="1.1" xmlns="http://www.w3.org/2000/svg" xmlns:xlink="http://www.w3.org/1999/xlink">
    <title>CF1D8731-FF74-4A2C-8C0B-B24A0F1894EC</title>
    <g id="Overview-New" stroke="none" stroke-width="1" fill="none" fill-rule="evenodd">
        <g id="19.1.3-Overview-Empty-State" transform="translate(-670.000000, -784.000000)" fill="#453A2D">
            <g id="Apartment/Empty-State" transform="translate(493.000000, 678.000000)">
                <g id="Icon/80/Empty" transform="translate(177.000000, 106.000000)">
                    <path d="M48.0497204,-1.24344979e-13 C48.8216774,-1.24344979e-13 49.4482581,0.626580645 49.4482581,1.39853763 L49.4482581,1.39853763 L49.4482581,4.18408602 L54.000172,4.18408602 C54.772129,4.18408602 55.3987097,4.81066667 55.3987097,5.58262366 L55.3987097,5.58262366 L55.3987097,7.32215054 L67.0114409,7.32215054 C67.7833978,7.32215054 68.4099785,7.94890323 68.4099785,8.72086022 L68.4099785,8.72086022 L68.4099785,78.5474409 C68.4099785,79.3193978 67.7833978,79.9459785 67.0114409,79.9459785 L67.0114409,79.9459785 L13.3985376,79.9459785 C12.6250323,79.9459785 12,79.3195699 12,78.5474409 L12,78.5474409 L12,8.72068817 C12,7.94873118 12.6265806,7.32215054 13.3985376,7.32215054 L13.3985376,7.32215054 L25.011,7.322 L25.0112688,5.58417204 C25.0112688,4.85762429 25.5663022,4.25985281 26.2751858,4.19204076 L26.4098065,4.18563441 L30.9603441,4.18563441 L30.9603441,1.39853763 C30.9603441,0.626580645 31.5869247,-1.24344979e-13 32.3588817,-1.24344979e-13 L32.3588817,-1.24344979e-13 Z M25.011,10.119 L14.7969032,10.1192258 L14.7969032,77.1492473 L65.6129032,77.1492473 L65.6129032,10.1193978 L55.3987097,10.1193978 L55.3987097,10.1193978 L55.3987097,17.8737204 C55.3987097,18.6456774 54.772129,19.2722581 54.000172,19.2722581 L54.000172,19.2722581 L26.4098065,19.2722581 C25.6378495,19.2722581 25.0112688,18.6456774 25.0112688,17.8752688 L25.0112688,17.8752688 L25.011,10.119 Z M46.6525591,2.79690323 L33.7572473,2.79690323 L33.7572473,5.58262366 C33.7572473,6.35458065 33.1306667,6.98116129 32.3587097,6.98116129 L32.3587097,6.98116129 L27.808172,6.98116129 L27.808172,16.4767312 L52.6016344,16.4767312 L52.6016344,6.98253763 L48.0510968,6.98253763 C47.2791398,6.98253763 46.6525591,6.35595699 46.6525591,5.584 L46.6525591,5.584 L46.6525591,2.79690323 Z M40.2042151,5.80507527 C41.6484694,5.80507527 42.8192688,6.97587472 42.8192688,8.42012903 C42.8192688,9.86438335 41.6484694,11.0351828 40.2042151,11.0351828 C38.7599607,11.0351828 37.5891613,9.86438335 37.5891613,8.42012903 C37.5891613,6.97587472 38.7599607,5.80507527 40.2042151,5.80507527 Z" id="Combined-Shape"></path>
                </g>
            </g>
        </g>
    </g>
</svg>