<svg width="18" height="18" viewBox="0 0 18 18" xmlns="http://www.w3.org/2000/svg">
    <path d="M15 8.1V18H8.28l.002-9.9H15zM11.062 0a.65.65 0 0 1 .637.578l.005.083v6.703H8.178a.619.619 0 0 0-.61.628l-.002 9.613-.05.389H6.71v-3.697c0 .008-.051-.028-.15-.04l-.064-.004H5.354c-.116 0-.187.037-.207.044H5.14v3.698H3V.66c0-.337.245-.615.562-.656L3.642 0h7.42zm-.303 14.581H9.634l-.062.004a.508.508 0 0 0-.436.51v1.157l.004.065c.03.253.24.449.494.449h1.125l.062-.004a.508.508 0 0 0 .436-.51v-1.157l-.004-.065a.504.504 0 0 0-.494-.449zm2.835 0h-1.125l-.062.004a.508.508 0 0 0-.436.51v1.157l.004.065c.03.253.24.449.494.449h1.125l.062-.004a.508.508 0 0 0 .436-.51v-1.157l-.004-.065a.504.504 0 0 0-.494-.449zm-2.835-2.699H9.634l-.062.004a.508.508 0 0 0-.436.51v1.158l.004.064c.03.253.24.449.494.449h1.125l.062-.004a.508.508 0 0 0 .436-.51v-1.157l-.004-.065a.504.504 0 0 0-.494-.449zm2.835 0h-1.125l-.062.004a.508.508 0 0 0-.436.51v1.158l.004.064c.03.253.24.449.494.449h1.125l.062-.004a.508.508 0 0 0 .436-.51v-1.157l-.004-.065a.504.504 0 0 0-.494-.449zm-7.275-1.635H5.203l-.062.004a.504.504 0 0 0-.432.506v1.148l.004.064a.5.5 0 0 0 .49.445H6.32l.062-.004a.504.504 0 0 0 .432-.505v-1.148l-.004-.064a.5.5 0 0 0-.49-.446zm4.44-1.063H9.634l-.062.004a.508.508 0 0 0-.436.509v1.158l.004.064c.03.253.24.45.494.45h1.125l.062-.005a.508.508 0 0 0 .436-.51V9.698l-.004-.064a.504.504 0 0 0-.494-.45zm2.835 0h-1.125l-.062.004a.508.508 0 0 0-.436.509v1.158l.004.064c.03.253.24.45.494.45h1.125l.062-.005a.508.508 0 0 0 .436-.51V9.698l-.004-.064a.504.504 0 0 0-.494-.45zM6.319 7.346H5.203l-.062.004a.504.504 0 0 0-.432.505v1.149l.004.063a.5.5 0 0 0 .49.446H6.32l.062-.004a.504.504 0 0 0 .432-.505V7.855l-.004-.064a.5.5 0 0 0-.49-.445zm2.818-2.902H8.02l-.062.004a.504.504 0 0 0-.432.506v1.148l.004.064a.5.5 0 0 0 .49.445h1.116l.062-.004a.504.504 0 0 0 .432-.505V4.954l-.004-.064a.5.5 0 0 0-.49-.446zm-2.818 0H5.203l-.062.004a.504.504 0 0 0-.432.506v1.148l.004.064a.5.5 0 0 0 .49.445H6.32l.062-.004a.504.504 0 0 0 .432-.505V4.954L6.81 4.89a.5.5 0 0 0-.49-.446zm2.818-2.901H8.02l-.062.004a.504.504 0 0 0-.432.505v1.149l.004.063a.5.5 0 0 0 .49.446h1.116l.062-.004A.504.504 0 0 0 9.63 3.2V2.052l-.004-.064a.5.5 0 0 0-.49-.445zm-2.818 0H5.203l-.062.004a.504.504 0 0 0-.432.505v1.149l.004.063a.5.5 0 0 0 .49.446H6.32l.062-.004a.504.504 0 0 0 .432-.505V2.052l-.004-.064a.5.5 0 0 0-.49-.445z" fill="#FFF" fill-rule="evenodd"/>
</svg>
