<svg width="20" height="20" viewBox="0 0 20 20" xmlns="http://www.w3.org/2000/svg">
    <path d="M15.785.808a1.132 1.132 0 0 1 1.104.873l.024.141.007 16.235a1.132 1.132 0 0 1-.873 1.104l-.142.024-12.295.007a1.132 1.132 0 0 1-1.104-.873l-.024-.141-.007-16.235A1.132 1.132 0 0 1 3.348.84l.141-.024L15.785.808zm-.025.553-12.733.606.607 16.672 12.733-.606L15.76 1.36zm-4.68 13.413.256 2.733-3.022.254-.255-2.732 3.022-.255zm-4.149 0 .255 2.733-3.026.254-.255-2.732 3.026-.255zm8.305-3.975.252 6.707-3.026.255-.252-6.707 3.026-.255zm-4.454 4.529h-2.17v1.88h2.17v-1.88zm-4.15 0H4.46v1.88h2.174v-1.88zm8.304-3.976h-2.174v5.855h2.174v-5.855zM11.08 10.8l.255 2.731-3.022.255-.255-2.731 3.022-.255zm-4.15 0 .255 2.731-3.026.255-.255-2.731 3.026-.255zm3.851.553h-2.17v1.88h2.17v-1.88zm-4.15 0H4.46v1.88h2.174v-1.88zm4.449-4.529.255 2.731-3.022.255-.255-2.731 3.022-.255zm-4.15 0 .255 2.731-3.026.255-.255-2.731 3.026-.255zm8.303 0 .255 2.731-3.026.255-.255-2.731 3.026-.255zm-4.452.553h-2.17v1.88h2.17v-1.88zm-4.15 0H4.46v1.88h2.174v-1.88zm8.304 0h-2.174v1.88h2.174v-1.88zm.299-5.136.254 3.452-11.33.251-.254-3.451 11.33-.252zm-.3.552H4.46v2.6h10.477v-2.6z" fill="#453A2D" fill-rule="nonzero" stroke="#453A2D" stroke-width=".05" stroke-linejoin="round"/>
</svg>
