<svg width="32" height="32" viewBox="0 0 32 32" xmlns="http://www.w3.org/2000/svg">
    <g fill="none" fill-rule="evenodd">
        <path d="M4 0h24a4 4 0 0 1 4 4v24a4 4 0 0 1-4 4H4a4 4 0 0 1-4-4V4a4 4 0 0 1 4-4z" fill="#6F655B"/>
        <path d="m17.01 7 .047.001L17.11 7h7.98c.502 0 .909.432.909.964v3.215c0 .532-.407.964-.91.964l-2.127-.001.007.108v3.214c0 .037-.002.072-.006.108h2.127c.502 0 .909.431.909.964v3.214c0 .533-.407.964-.91.964h-2.127l.007.107v3.215c0 .532-.407.964-.91.964h-7.07l-.049-.001-.052.001h-7.98C6.407 25 6 24.568 6 24.036V20.82c0-.532.407-.964.91-.964h2.126l-.006-.107v-3.214c0-.037.002-.072.006-.108H6.909c-.502 0-.909-.431-.909-.964V12.25c0-.533.407-.964.91-.964l2.126-.001-.006-.106V7.964c0-.532.407-.964.91-.964zm-3.03 13.821H6.91v3.215h7.07V20.82zm8.08 0h-7.07v3.215h7.07V20.82zm-5.05-4.285H9.94v3.214h7.07v-3.214zm8.08 0h-7.07v3.214h7.07v-3.214zM13.98 12.25H6.91v3.214h7.07V12.25zm8.08 0h-7.07v3.214h7.07V12.25zm-5.05-4.286H9.94v3.215h7.07V7.964zm8.08 0h-7.07v3.215h7.07V7.964z" fill="#FFF"/>
    </g>
</svg>
