<svg width="32" height="32" viewBox="0 0 32 32" xmlns="http://www.w3.org/2000/svg">
    <g fill="none" fill-rule="evenodd">
        <path d="M4 0h24a4 4 0 0 1 4 4v24a4 4 0 0 1-4 4H4a4 4 0 0 1-4-4V4a4 4 0 0 1 4-4z" fill="#6F655B"/>
        <path d="M9.879 6.975c.799 0 1.543.402 2.094 1.135.522.693.81 1.61.81 2.579 0 .969-.288 1.885-.81 2.578a3.103 3.103 0 0 1-.696.682l-.195.124.44 9.2a1.645 1.645 0 0 1-1.643 1.752 1.645 1.645 0 0 1-1.631-1.416l-.015-.169.61-9.278a2.934 2.934 0 0 1-1.058-.895c-.522-.693-.81-1.61-.81-2.579 0-.969.288-1.885.81-2.578.55-.733 1.294-1.135 2.094-1.135zm-.171 7.42-.597 8.937v.106a.757.757 0 0 0 .206.469.763.763 0 0 0 .562.242.762.762 0 0 0 .561-.242.757.757 0 0 0 .206-.469v-.108l-.938-8.935zm.17-6.544c-.557 0-1.062.318-1.428.829-.369.514-.597 1.225-.597 2.008 0 .694.179 1.33.54 1.834.337.471.834.827 1.492 1.005.551 0 1.057-.319 1.423-.83.368-.514.596-1.225.596-2.009 0-.783-.228-1.494-.596-2.008-.367-.511-.872-.83-1.43-.83zm6.947-.876a.438.438 0 0 1 .409.279l.022.076.008 4.748h1.005V7.413c.13-.311.132-.313.134-.314l.005-.002c.412-.127.504-.084.578-.024a.434.434 0 0 1 .131.18l.022.077.009 6.059a1.251 1.251 0 0 1-.97 1.214l-.129.022.382 8.69a1.606 1.606 0 0 1-1.606 1.71 1.607 1.607 0 0 1-1.594-1.384l-.014-.164.582-8.843a1.36 1.36 0 0 1-.866-.313 1.211 1.211 0 0 1-.403-.672l-.021-.135-.007-6.101a.436.436 0 0 1 .44-.438.438.438 0 0 1 .408.279l.022.076.009 4.748h1.005V7.413a.436.436 0 0 1 .439-.438zm-.164 7.926-.565 8.471.001.121a.719.719 0 0 0 .194.425c.14.15.33.231.534.231.206 0 .394-.091.729-.783l-.893-8.465zm7.694-7.86.67 10.715v6.003a1.262 1.262 0 0 1-2.11.935 1.259 1.259 0 0 1-.39-.674l-.022-.135-.006-5.693a.904.904 0 0 1-.82-.661l-.026-.13-.007-5.515c.086-2.139 1.085-3.844 2.71-4.846zm-.208 11.154h-.768l.768 5.222v-5.222zm0-9.914c-.968.852-1.552 2.055-1.624 3.607l.05 5.431h1.574z" fill="#FFF" fill-rule="nonzero" stroke="#FFF" stroke-linejoin="round" stroke-width=".05"/>
    </g>
</svg>
