<svg width="32" height="32" viewBox="0 0 32 32" xmlns="http://www.w3.org/2000/svg">
    <g fill="none" fill-rule="evenodd">
        <path d="M4 0h24a4 4 0 0 1 4 4v24a4 4 0 0 1-4 4H4a4 4 0 0 1-4-4V4a4 4 0 0 1 4-4z" fill="#6F655B"/>
        <path d="m24.778 6.898.324 17.88-17.88.324-.324-17.88 17.88-.324zM24.26 20.7l-3.56 3.56h3.56V20.7zm-6.238 1.255-2.305 2.305h3.795l.407-.407-1.897-1.898zm.24-4.891-7.196 7.196h3.463l5.465-5.465-1.732-1.731zm-8.554 3.715L7.74 22.746v1.514h2.137l1.656-1.656-1.825-1.825zm14.552-5.062-5.644 5.644 1.897 1.897 3.747-3.746v-3.795zm-4.283-5.207-9.675 9.675 1.825 1.825 9.675-9.675-1.825-1.825zm-6.634 1.517L7.74 17.542v4.016l1.674-1.674 5.893-5.893-1.964-1.964zm10.917-.962-5.404 5.404 1.732 1.732 3.672-3.672v-3.464zM7.74 12.471v3.892l2.28-2.245-2.28-1.647zm8.739-4.71h-3.9l-3.966 3.736 2.019 2.02 5.847-5.756zm5.08-.02h-3.861l-3.757 3.697 1.96 1.96 5.657-5.658zm2.7 0h-1.513l-2.175 2.175 1.825 1.825 1.864-1.864V7.74zm-12.883 0h-3.63l.163 3.265 3.467-3.266z" fill="#FFF" fill-rule="nonzero" stroke="#FFF" stroke-width=".2"/>
    </g>
</svg>
