<svg width="32" height="32" viewBox="0 0 32 32" xmlns="http://www.w3.org/2000/svg">
    <g fill="none" fill-rule="evenodd">
        <path d="M4 0h24a4 4 0 0 1 4 4v24a4 4 0 0 1-4 4H4a4 4 0 0 1-4-4V4a4 4 0 0 1 4-4z" fill="#6F655B"/>
        <path d="M24.473 7H7.527A.527.527 0 0 0 7 7.527v16.946c0 .29.236.527.527.527h16.946a.527.527 0 0 0 .527-.527V7.527A.527.527 0 0 0 24.473 7zM8.055 8.055h4.254v10.582H8.055V8.055zm10.582 15.89H8.055v-4.254h10.582v4.254zm0-5.308h-5.274v-5.274h5.274v5.274zm5.308 5.308h-4.254V13.363h4.254v10.582zm0-11.636H13.363V8.055h10.582v4.254z" fill="#FFF" fill-rule="nonzero"/>
    </g>
</svg>
