<?xml version="1.0" encoding="UTF-8"?>
<svg width="24px" height="24px" viewBox="0 0 24 24" version="1.1" xmlns="http://www.w3.org/2000/svg" xmlns:xlink="http://www.w3.org/1999/xlink">
    <title>7E2724B3-866E-4818-BF9C-DD54E98C97AA</title>
    <g id="Overview-New" stroke="none" stroke-width="1" fill="none" fill-rule="evenodd">
        <g id="19.1.3-Overview-Empty-State" transform="translate(-1347.000000, -1653.000000)" fill="#453A2D">
            <g id="Apartment/Leases" transform="translate(957.000000, 1300.000000)">
                <g id="Icons/24/stroke/Garage" transform="translate(390.000000, 353.000000)">
                    <path d="M22.7427615,6.94348165 L12.2423028,1.11045413 C12.0909266,1.02467431 11.9042294,1.02467431 11.7528532,1.11045413 L1.25744037,6.94348165 C1.09597248,7.03430734 1.00001466,7.2008211 1.00001466,7.38247248 L1.00001466,22.1517385 C0.995055046,22.4242156 1.21202752,22.6463202 1.48450459,22.6463202 C1.48955046,22.6463202 1.49459633,22.6463202 1.49459633,22.6463202 L22.5005596,22.6463202 C22.7730367,22.6512798 22.9952448,22.4343073 22.9952448,22.1618303 C22.9952448,22.1567844 22.9952448,22.1517385 22.9952448,22.1517385 L22.9952448,7.38751835 C23.0001009,7.2008211 22.9042294,7.03430734 22.7427615,6.94348165 Z M19.0643211,21.6421055 L4.93588073,21.6421055 L4.93588073,19.5732982 L19.0643211,19.5732982 L19.0643211,21.6421055 Z M19.0643211,18.5641239 L4.93588073,18.5641239 L4.93588073,16.6466927 L19.0643211,16.6466927 L19.0643211,18.5641239 Z M19.0643211,15.6375183 L4.93588073,15.6375183 L4.93588073,13.7200872 L19.0643211,13.7200872 L19.0643211,15.6375183 Z M19.0643211,12.7109128 L4.93588073,12.7109128 L4.93588073,10.7934817 L19.0643211,10.7934817 L19.0643211,12.7109128 Z M21.9909266,21.6421055 L20.0734954,21.6421055 L20.0734954,10.3040321 C20.0734954,10.0265092 19.8666147,9.78430734 19.5840459,9.78430734 L4.41615596,9.78430734 C4.13863303,9.78430734 3.92670642,10.0265092 3.92670642,10.3040321 L3.92670642,21.6421055 L2.00927523,21.6421055 L2.00927523,7.6801789 L12.0001009,2.12467431 L21.9909266,7.6801789 L21.9909266,21.6421055 Z" id="Shape"></path>
                </g>
            </g>
        </g>
    </g>
</svg>