<?xml version="1.0" encoding="UTF-8"?>
<svg width="24px" height="24px" viewBox="0 0 24 24" version="1.1" xmlns="http://www.w3.org/2000/svg" xmlns:xlink="http://www.w3.org/1999/xlink">
    <title>2E2BCD90-C5E8-4B09-A099-D20FD083EC7D</title>
    <g id="Overview-New" stroke="none" stroke-width="1" fill="none" fill-rule="evenodd">
        <g id="19.1.3-Overview-Empty-State" transform="translate(-1347.000000, -1528.000000)" fill="#453A2D">
            <g id="Apartment/Leases" transform="translate(957.000000, 1300.000000)">
                <g id="Title--Materials-Copy" transform="translate(0.000000, 220.000000)">
                    <g id="Icons/24/Apartment/Stroke/V1" transform="translate(390.000000, 8.000000)">
                        <path d="M1.64644661,11.6464466 L1.59053079,11.7121985 C1.36219694,12.0308449 1.5842444,12.5 2,12.5 L4.5,12.5 L4.5,22 C4.5,22.2761424 4.72385763,22.5 5,22.5 L10,22.5 L10.0898756,22.4919443 C10.3231248,22.4496084 10.5,22.2454599 10.5,22 L10.5,17.5 L13.5,17.5 L13.5,22 C13.5,22.2761424 13.7238576,22.5 14,22.5 L19,22.5 L19.0898756,22.4919443 C19.3231248,22.4496084 19.5,22.2454599 19.5,22 L19.5,12.5 L22,12.5 C22.4454524,12.5 22.6685358,11.961429 22.3535534,11.6464466 L12.3535534,1.64644661 C12.1582912,1.45118446 11.8417088,1.45118446 11.6464466,1.64644661 L1.64644661,11.6464466 Z M12,2.707 L20.793,11.5 L19,11.5 L18.9101244,11.5080557 C18.6768752,11.5503916 18.5,11.7545401 18.5,12 L18.5,21.5 L14.5,21.5 L14.5,17 C14.5,16.7238576 14.2761424,16.5 14,16.5 L10,16.5 L9.91012437,16.5080557 C9.67687516,16.5503916 9.5,16.7545401 9.5,17 L9.5,21.5 L5.5,21.5 L5.5,12 L5.49194433,11.9101244 C5.44960837,11.6768752 5.24545989,11.5 5,11.5 L3.206,11.5 L12,2.707 Z" id="Combined-Shape"></path>
                    </g>
                </g>
            </g>
        </g>
    </g>
</svg>