<?xml version="1.0" encoding="UTF-8"?>
<svg width="24px" height="24px" viewBox="0 0 24 24" version="1.1" xmlns="http://www.w3.org/2000/svg" xmlns:xlink="http://www.w3.org/1999/xlink">
    <title>9EADF20A-D76D-450B-9BA9-E9969BC4761C</title>
    <g id="Overview-New" stroke="none" stroke-width="1" fill="none" fill-rule="evenodd">
        <g id="19.1.3-Overview-Empty-State" transform="translate(-1347.000000, -1778.000000)" fill="#453A2D">
            <g id="Apartment/Leases" transform="translate(957.000000, 1300.000000)">
                <g id="Icons/24/stroke/Parking" transform="translate(390.000000, 478.000000)">
                    <path d="M21.28125,1 C22.2289687,1 23,1.77103125 23,2.71875 L23,2.71875 L23,21.28125 C23,22.2289687 22.2289687,23 21.28125,23 L21.28125,23 L10.0664062,23 L10.0664062,23 C10.3036797,23 10.4960938,22.8075859 10.4960938,22.5703125 C10.4960938,22.8075859 9.82913281,23 10.0664062,23 L2.71875,23 C1.77103125,23 1,22.2289687 1,21.28125 L1,21.28125 L1,2.71875 C1,1.77103125 1.77103125,1 2.71875,1 L2.71875,1 Z M21.28125,1.859375 L2.71875,1.859375 C2.24489063,1.859375 1.859375,2.24489063 1.859375,2.71875 L1.859375,2.71875 L1.859375,21.28125 C1.859375,21.7551094 2.24489063,22.140625 2.71875,22.140625 L2.71875,22.140625 L10.0664062,22.140625 L10.0664062,22.140625 L10.127,22.146 L10.1310125,22.1439735 L10.1722134,22.140625 L21.28125,22.140625 C21.7551094,22.140625 22.140625,21.7551094 22.140625,21.28125 L22.140625,21.28125 L22.140625,2.71875 C22.140625,2.24489063 21.7551094,1.859375 21.28125,1.859375 L21.28125,1.859375 Z M12.6445312,5.125 C15.3692227,5.125 17.5859375,7.34171484 17.5859375,10.0664062 C17.5859375,12.7910977 15.3692227,15.0078125 12.6445312,15.0078125 L12.6445312,15.0078125 L9.8515625,15.0078125 L9.8515625,18.4453125 C9.8515625,18.6825859 9.65914844,18.875 9.421875,18.875 L9.421875,18.875 L6.84375,18.875 C6.60647656,18.875 6.4140625,18.6825859 6.4140625,18.4453125 L6.4140625,18.4453125 L6.4140625,5.5546875 C6.4140625,5.31741406 6.60647656,5.125 6.84375,5.125 L6.84375,5.125 Z M12.6445312,5.984375 L7.2734375,5.984375 L7.2734375,18.015625 L8.9921875,18.015625 L8.9921875,14.578125 C8.9921875,14.3408516 9.18460156,14.1484375 9.421875,14.1484375 L9.421875,14.1484375 L12.6445312,14.1484375 C14.8953633,14.1484375 16.7265625,12.3172383 16.7265625,10.0664062 C16.7265625,7.81557422 14.8953633,5.984375 12.6445312,5.984375 L12.6445312,5.984375 Z M12.6445312,7.703125 C13.9476445,7.703125 15.0078125,8.76329297 15.0078125,10.0664062 C15.0078125,11.3695195 13.9476445,12.4296875 12.6445312,12.4296875 L12.6445312,12.4296875 L9.421875,12.4296875 C9.18460156,12.4296875 8.9921875,12.2372734 8.9921875,12 L8.9921875,12 L8.9921875,8.1328125 C8.9921875,7.89553906 9.18460156,7.703125 9.421875,7.703125 L9.421875,7.703125 Z M12.6445312,8.5625 L9.8515625,8.5625 L9.8515625,11.5703125 L12.6445312,11.5703125 C13.4737852,11.5703125 14.1484375,10.8956602 14.1484375,10.0664062 C14.1484375,9.23715234 13.4737852,8.5625 12.6445312,8.5625 L12.6445312,8.5625 Z" id="Combined-Shape"></path>
                </g>
            </g>
        </g>
    </g>
</svg>