<?xml version="1.0" encoding="UTF-8"?>
<svg width="25px" height="24px" viewBox="0 0 25 24" version="1.1" xmlns="http://www.w3.org/2000/svg" xmlns:xlink="http://www.w3.org/1999/xlink">
    <title>F2390285-293D-4EFA-9F56-7DBC6F7A931B</title>
    <g id="Overview-New" stroke="none" stroke-width="1" fill="none" fill-rule="evenodd" stroke-linejoin="round">
        <g id="19.1.3-Overview-Empty-State" transform="translate(-1341.000000, -1348.000000)" fill="#453A2D" fill-rule="nonzero" stroke="#453A2D" stroke-width="0.05">
            <g id="Apartment/Leases" transform="translate(957.000000, 1300.000000)">
                <g id="Text/Title+Icon" transform="translate(0.000000, 40.000000)">
                    <g id="Icons/24/stroke/Short-text" transform="translate(384.965333, 8.000000)">
                        <path d="M18.6916667,-0.025 L18.6916667,6.22374455 L20.5677618,8.02479583 L20.7748451,22.2235958 L21.9702516,23.3711861 L20.1608333,22.825 L4.05833333,22.825 L4.05833333,20.825 L1.975,20.825 L1.975,-0.025 L18.6916667,-0.025 Z M13.6416667,2.825 L4.94166667,2.825 L4.94166667,21.975 L19.2653589,21.975 L16.1952367,19.0276827 L15.9924423,19.1822812 C15.1643437,19.7807837 14.1363506,20.1374 13.0220833,20.1374 C11.6565608,20.1374 10.4183723,19.6040929 9.52154087,18.7431347 C8.62433207,17.8818142 8.06875,16.692605 8.06875,15.3812 C8.06875,14.069795 8.62433207,12.8805858 9.52154087,12.0192653 C10.4183723,11.1583071 11.6565608,10.625 13.0220833,10.625 C14.3876059,10.625 15.6257943,11.1583071 16.5226258,12.0192653 C17.4198346,12.8805858 17.9754167,14.069795 17.9754167,15.3812 C17.9754167,16.457952 17.5995106,17.4509981 16.8196429,18.4266017 L16.8196429,18.4266017 L19.8916667,21.3757446 L19.8916667,8.825 L13.6416667,8.825 L13.6416667,2.825 Z M17.8083333,0.825 L2.85833333,0.825 L2.85833333,19.975 L4.05833333,19.975 L4.05833333,1.97451659 L14.4731743,2.17399188 L17.8083333,5.37574455 L17.8083333,0.825 Z M13.0220833,11.475 C11.8998973,11.475 10.8822526,11.913193 10.1451779,12.6207847 C9.40848054,13.3280141 8.95208333,14.3044047 8.95208333,15.3812 C8.95208333,16.4579953 9.40848054,17.4343859 10.1451779,18.1416153 C10.8822526,18.849207 11.8998973,19.2874 13.0220833,19.2874 C14.1442694,19.2874 15.1619141,18.849207 15.8989888,18.1416153 C16.6356861,17.4343859 17.0920833,16.4579953 17.0920833,15.3812 C17.0920833,14.3044047 16.6356861,13.3280141 15.8989888,12.6207847 C15.1619141,11.913193 14.1442694,11.475 13.0220833,11.475 Z" id="Combined-Shape"></path>
                    </g>
                </g>
            </g>
        </g>
    </g>
</svg>