<?xml version="1.0" encoding="UTF-8"?>
<svg width="24px" height="24px" viewBox="0 0 24 24" version="1.1" xmlns="http://www.w3.org/2000/svg" xmlns:xlink="http://www.w3.org/1999/xlink">
    <title>4A196C84-67B1-4E0A-9B99-68780DFFBDE0</title>
    <g id="Overview-New" stroke="none" stroke-width="1" fill="none" fill-rule="evenodd">
        <g id="19.1.1-Overview" transform="translate(-1347.000000, -1308.000000)" fill="#FFFFFF">
            <g id="Apartment/Leases" transform="translate(957.000000, 1300.000000)">
                <g id="Icons/24/stroke/Payments/List" transform="translate(390.000000, 8.000000)">
                    <path d="M21.1666667,1 C22.1786945,1.00119208 22.9988079,1.82130548 23,2.83333333 L23,2.83333333 L23,4.66666667 C22.9995353,5.07148284 22.6714828,5.39953525 22.2666667,5.4 L22.2666667,5.4 L20.0666667,5.4 L20.0666667,21.1666667 C20.0654746,22.1786945 19.2453612,22.9988079 18.2333333,23 L18.2333333,23 L2.83333333,23 C1.82130548,22.9988079 1.00119208,22.1786945 1,21.1666667 L1,21.1666667 L1,19.3333333 C1.00046474,18.9285172 1.32851717,18.6004648 1.73333333,18.6 L1.73333333,18.6 L3.93333333,18.6 L3.93333333,2.83333333 C3.93452542,1.82130548 4.7546388,1.00119208 5.76666667,1 L5.76666667,1 Z M16.4,19.3333333 L1.73333333,19.3333333 L1.73333333,21.1666667 C1.73400019,21.7739034 2.22609655,22.2659998 2.83333333,22.2666667 L2.83333333,22.2666667 L16.7675467,22.2666667 C16.5286072,21.9497586 16.3995647,21.5635578 16.4,21.1666667 L16.4,21.1666667 L16.4,19.3333333 Z M19.7093867,1.73333333 L5.76666667,1.73333333 C5.15942989,1.73400019 4.66733352,2.22609655 4.66666667,2.83333333 L4.66666667,2.83333333 L4.66666667,18.6 L16.4,18.6 C16.8048162,18.6004648 17.1328686,18.9285172 17.1333333,19.3333333 L17.1333333,19.3333333 L17.1333333,21.1666667 C17.1333334,21.7741799 17.6258201,22.2666666 18.2333333,22.2666666 C18.8408465,22.2666666 19.3333333,21.7741799 19.3333333,21.1666667 L19.3333333,21.1666667 L19.3333333,2.83333333 C19.3347318,2.43536046 19.4668592,2.04887225 19.7093867,1.73333333 L19.7093867,1.73333333 Z M17.1333333,12.3666667 C17.5381495,12.3671314 17.8662019,12.6951838 17.8666667,13.1 L17.8666667,13.1 L17.8666667,16.0333333 C17.8662019,16.4381495 17.5381495,16.7662019 17.1333333,16.7666667 L17.1333333,16.7666667 L14.2,16.7666667 C13.7951838,16.7662019 13.4671314,16.4381495 13.4666667,16.0333333 L13.4666667,16.0333333 L13.4666667,13.1 C13.4671314,12.6951838 13.7951838,12.3671314 14.2,12.3666667 L14.2,12.3666667 Z M17.1333333,13.1 L14.2,13.1 L14.2,16.0333333 L17.1338833,16.0333333 L17.1333333,13.1 Z M12.3666667,14.9333333 C12.5691711,14.9333333 12.7333333,15.0974956 12.7333333,15.3 C12.7333333,15.5025044 12.5691711,15.6666667 12.3666667,15.6666667 L12.3666667,15.6666667 L6.5,15.6666667 C6.29749561,15.6666667 6.13333333,15.5025044 6.13333333,15.3 C6.13333333,15.0974956 6.29749561,14.9333333 6.5,14.9333333 L6.5,14.9333333 Z M10.1666667,13.4666667 C10.3691711,13.4666667 10.5333333,13.6308289 10.5333333,13.8333333 C10.5333333,14.0358377 10.3691711,14.2 10.1666667,14.2 L10.1666667,14.2 L6.5,14.2 C6.29749561,14.2 6.13333333,14.0358377 6.13333333,13.8333333 C6.13333333,13.6308289 6.29749561,13.4666667 6.5,13.4666667 L6.5,13.4666667 Z M12.3666667,13.4666667 C12.5691711,13.4666667 12.7333333,13.6308289 12.7333333,13.8333333 C12.7333333,14.0358377 12.5691711,14.2 12.3666667,14.2 L12.3666667,14.2 L11.6333333,14.2 C11.4308289,14.2 11.2666667,14.0358377 11.2666667,13.8333333 C11.2666667,13.6308289 11.4308289,13.4666667 11.6333333,13.4666667 L11.6333333,13.4666667 Z M16.4,6.5 C16.6025044,6.5 16.7666667,6.66416228 16.7666667,6.86666667 C16.7666667,7.06917106 16.6025044,7.23333333 16.4,7.23333333 L16.4,7.23333333 L14.2,7.23333333 L14.2,10.1666667 L17.1333333,10.1666667 L17.1333333,9.43333333 C17.1333333,9.23082894 17.2974956,9.06666667 17.5,9.06666667 C17.597246,9.06666667 17.6905091,9.10529749 17.7592725,9.17406084 C17.8280358,9.24282419 17.8666667,9.33608728 17.8666667,9.43333333 L17.8666667,9.43333333 L17.8666667,10.1666667 C17.8662019,10.5714828 17.5381495,10.8995352 17.1333333,10.9 L17.1333333,10.9 L14.2,10.9 C13.7951838,10.8995352 13.4671314,10.5714828 13.4666667,10.1666667 L13.4666667,10.1666667 L13.4666667,7.23333333 C13.4671314,6.82851716 13.7951838,6.50046475 14.2,6.5 L14.2,6.5 Z M12.3666667,9.06666667 C12.5691711,9.06666667 12.7333333,9.23082894 12.7333333,9.43333333 C12.7333333,9.63583772 12.5691711,9.8 12.3666667,9.8 L12.3666667,9.8 L6.5,9.8 C6.29749561,9.8 6.13333333,9.63583772 6.13333333,9.43333333 C6.13333333,9.23082894 6.29749561,9.06666667 6.5,9.06666667 L6.5,9.06666667 Z M17.9741,6.60743333 C18.1179723,6.46847686 18.3466644,6.47046412 18.4881002,6.61189985 C18.6295359,6.75333557 18.6315231,6.98202774 18.4925667,7.1259 L18.4925667,7.1259 L16.2925667,9.3259 C16.2238304,9.39468432 16.1305751,9.43333099 16.0333333,9.43333099 C15.9360916,9.43333099 15.8428363,9.39468432 15.7741,9.3259 L15.7741,9.3259 L15.0407667,8.59256667 C14.9018102,8.4486944 14.9037975,8.22000224 15.0452332,8.07856651 C15.1866689,7.93713079 15.4153611,7.93514353 15.5592333,8.0741 L15.5592333,8.0741 L16.0333333,8.54816333 Z M10.1666667,7.6 C10.3691711,7.6 10.5333333,7.76416228 10.5333333,7.96666667 C10.5333333,8.16917106 10.3691711,8.33333333 10.1666667,8.33333333 L10.1666667,8.33333333 L6.5,8.33333333 C6.29749561,8.33333333 6.13333333,8.16917106 6.13333333,7.96666667 C6.13333333,7.76416228 6.29749561,7.6 6.5,7.6 L6.5,7.6 Z M12.3666667,7.6 C12.5691711,7.6 12.7333333,7.76416228 12.7333333,7.96666667 C12.7333333,8.16917106 12.5691711,8.33333333 12.3666667,8.33333333 L12.3666667,8.33333333 L11.6333333,8.33333333 C11.4308289,8.33333333 11.2666667,8.16917106 11.2666667,7.96666667 C11.2666667,7.76416228 11.4308289,7.6 11.6333333,7.6 L11.6333333,7.6 Z M21.1666667,1.73333333 C20.5591535,1.73333333 20.0666667,2.22582011 20.0666667,2.83333333 L20.0666667,2.83333333 L20.0666667,4.66666667 L22.2666667,4.66666667 L22.2666667,2.83333333 C22.2666667,2.22582011 21.7741799,1.73333333 21.1666667,1.73333333 Z M14.2,3.2 C14.4025044,3.2 14.5666667,3.36416226 14.5666667,3.56666667 C14.5666667,3.76917107 14.4025044,3.93333333 14.2,3.93333333 L14.2,3.93333333 L6.5,3.93333333 C6.29749561,3.93333333 6.13333333,3.76917107 6.13333333,3.56666667 C6.13333333,3.36416226 6.29749561,3.2 6.5,3.2 L6.5,3.2 Z M17.5,3.2 C17.7025044,3.2 17.8666667,3.36416226 17.8666667,3.56666667 C17.8666667,3.76917107 17.7025044,3.93333333 17.5,3.93333333 L17.5,3.93333333 L16.0333333,3.93333333 C15.8308289,3.93333333 15.6666667,3.76917107 15.6666667,3.56666667 C15.6666667,3.36416226 15.8308289,3.2 16.0333333,3.2 L16.0333333,3.2 Z" id="Combined-Shape"></path>
                </g>
            </g>
        </g>
    </g>
</svg>