<svg width="24" height="24" viewBox="0 0 24 24" xmlns="http://www.w3.org/2000/svg">
    <path d="M21.167 1c.961.001 1.75.741 1.827 1.683l.006.15v18.334a1.836 1.836 0 0 1-1.683 1.827l-.15.006H5.033a1.836 1.836 0 0 1-1.827-1.683l-.006-.15v-.734h-.733a1.467 1.467 0 0 1-.142-2.926l.142-.007H3.2v-1.467h-.733a1.467 1.467 0 0 1-.142-2.926l.142-.007H3.2v-1.833h-.733a1.467 1.467 0 0 1-.142-2.927l.142-.007H3.2V6.867h-.733a1.467 1.467 0 0 1-.142-2.927l.142-.007H3.2v-1.1a1.836 1.836 0 0 1 1.683-1.827L5.033 1h16.134zM7.6 1.733H5.033a1.1 1.1 0 0 0-1.093.98l-.007.12v1.1h.734a1.467 1.467 0 0 1 .14 2.927l-.14.007h-.734v1.466h.734a1.467 1.467 0 0 1 .14 2.927l-.14.007h-.734V13.1h.734a1.467 1.467 0 0 1 .14 2.927l-.14.006h-.734V17.5h.734a1.467 1.467 0 0 1 .14 2.927l-.14.006h-.734v.734a1.1 1.1 0 0 0 .98 1.093l.12.007H7.6V1.733zM15.208 6.5a5.966 5.966 0 0 0-5.958 5.958 5.966 5.966 0 0 0 5.958 5.959 5.966 5.966 0 0 0 5.959-5.959A5.966 5.966 0 0 0 15.208 6.5zm0 7.01c1.34 0 4.556.696 4.556 2.42v.113l-.065.091-.151.2a5.54 5.54 0 0 1-4.34 2.083 5.531 5.531 0 0 1-4.49-2.283l-.066-.091v-.113l.009-.159c.19-1.608 3.249-2.261 4.547-2.261zm0 .7c-1.307 0-3.684.661-3.846 1.616a4.832 4.832 0 0 0 3.846 1.89 4.834 4.834 0 0 0 3.847-1.89c-.163-.955-2.54-1.615-3.847-1.615zm0-6.308a2.566 2.566 0 0 1 2.594 2.594 2.566 2.566 0 0 1-2.594 2.593 2.566 2.566 0 0 1-2.593-2.593 2.566 2.566 0 0 1 2.593-2.594zm0 .7c-1.079 0-1.892.815-1.892 1.894s.813 1.892 1.892 1.892c1.08 0 1.893-.813 1.893-1.892 0-1.08-.814-1.893-1.893-1.893z" fill="#FFF" fill-rule="evenodd"/>
</svg>
