<svg width="24" height="24" viewBox="0 0 24 24" xmlns="http://www.w3.org/2000/svg">
    <path d="M9.2 0c1.808 0 3.142.475 3.963 1.412.947 1.08.86 2.39.837 2.61V6.15c.256.292.4.665.4 1.05v1.6c0 .487-.22.94-.599 1.244a8.398 8.398 0 0 1-1.401 2.895v1.323c0 .387.211.743.551.928l1.473.804A5.2 5.2 0 0 1 18.8 13.6c2.867 0 5.2 2.333 5.2 5.2S21.667 24 18.8 24a5.185 5.185 0 0 1-3.749-1.6H.4A.4.4 0 0 1 0 22v-1.695c0-1.322.72-2.535 1.88-3.168l3.57-1.947c.339-.185.55-.54.55-.928V12.94a8.406 8.406 0 0 1-1.401-2.895A1.591 1.591 0 0 1 4 8.8V7.2c0-.385.144-.758.4-1.05V4.023c-.022-.22-.11-1.53.837-2.61C6.058.474 7.392 0 9.2 0zm9.6 14.4a4.405 4.405 0 0 0-4.4 4.4 4.381 4.381 0 0 0 1.155 2.968A4.39 4.39 0 0 0 18.8 23.2c2.426 0 4.4-1.974 4.4-4.4s-1.974-4.4-4.4-4.4zM9.2.8c-1.568 0-2.698.383-3.362 1.14-.779.889-.643 1.997-.642 2.008A.387.387 0 0 1 5.2 4v2.313a.4.4 0 0 1-.132.297.789.789 0 0 0-.268.59v1.6c0 .27.138.52.37.67a.4.4 0 0 1 .173.247c.372 1.62 1.354 2.815 1.364 2.827.06.072.093.163.093.256v1.462c0 .68-.37 1.305-.968 1.63L2.264 17.84A2.807 2.807 0 0 0 .8 20.305V21.6h13.62a5.17 5.17 0 0 1-.82-2.8c0-.748.159-1.459.444-2.102l-1.476-.805a1.857 1.857 0 0 1-.968-1.63V12.8c0-.093.033-.184.093-.256.01-.012.992-1.207 1.364-2.827a.398.398 0 0 1 .173-.246c.232-.15.37-.4.37-.67V7.2a.79.79 0 0 0-.268-.59.4.4 0 0 1-.132-.298V4c0-.017.001-.035.004-.052 0-.01.13-1.136-.65-2.016C11.892 1.18 10.763.8 9.2.8zm12 17.6a.4.4 0 0 1 0 .8h-4.8a.4.4 0 0 1 0-.8z" fill="#453A2D" fill-rule="nonzero" stroke="#453A2D" stroke-width=".3"/>
</svg>
