<?xml version="1.0" encoding="UTF-8"?>
<svg width="22px" height="22px" viewBox="0 0 22 22" version="1.1" xmlns="http://www.w3.org/2000/svg" xmlns:xlink="http://www.w3.org/1999/xlink">
    <title>AA07658F-CD37-42D0-B148-15DFBDE1C2F5</title>
    <g id="Overview-New" stroke="none" stroke-width="1" fill="none" fill-rule="evenodd">
        <g id="19.1.2-Overview---Change-Project" transform="translate(-513.000000, -1257.000000)" fill="#453A2D">
            <g id="Apartment/Apt-Case" transform="translate(493.000000, 1068.000000)">
                <g id="Apartments/Case" transform="translate(0.000000, 168.000000)">
                    <g id="Icons/24px/Chat" transform="translate(20.000000, 21.000000)">
                        <path d="M20.375,14.3332825 C20.7200012,14.3332825 21,14.6132813 21,14.9582825 L21,18.7082825 C21,19.9724731 19.9724731,21 18.7082825,21 L3.29171754,21 C2.02752687,21 1,19.9724731 1,18.7082825 L1,14.9582825 C1,14.6132813 1.27999879,14.3332825 1.625,14.3332825 C1.97000121,14.3332825 2.25,14.6132813 2.25,14.9582825 L2.25,18.7082825 C2.25,19.2824707 2.7175293,19.75 3.29171754,19.75 L18.7082825,19.75 C19.2824707,19.75 19.75,19.2824707 19.75,18.7082825 L19.75,14.9582825 C19.75,14.6132813 20.0299988,14.3332825 20.375,14.3332825 Z M11,1 C11.3450012,1 11.625,1.27999879 11.625,1.625 L11.625,13.032 L13.8924561,10.7657776 C14.1365967,10.521637 14.5325623,10.521637 14.7767029,10.7657776 C15.0208435,11.0100708 15.0208435,11.4058838 14.7767029,11.6500244 L11.4432678,14.9833069 L11.4184048,15.0058865 C11.4115469,15.0120728 11.4045515,15.0181094 11.3974236,15.0239912 L11.4432678,14.9833069 C11.4133879,15.0130019 11.381357,15.0390762 11.3476943,15.0615406 C11.3376408,15.0678021 11.3274216,15.0742398 11.3170091,15.0803841 C11.3016405,15.0897761 11.2861245,15.09801 11.2703669,15.1055459 C11.2516493,15.1143199 11.2321046,15.1225413 11.2120861,15.1297691 C11.2045387,15.1325802 11.1971218,15.1350842 11.1896704,15.1374451 C11.1645361,15.1450355 11.1483618,15.1492125 11.1319486,15.1527442 C11.1199728,15.1553121 11.1078726,15.1575379 11.0957288,15.1594055 L11,15.1667175 L11,15.1667175 C10.9557268,15.1667175 10.9114653,15.1620597 10.8680194,15.1527279 C10.8516382,15.1492125 10.8354639,15.1450355 10.8195563,15.1402413 C10.8042727,15.1354919 10.7981427,15.1334409 10.7920397,15.1312919 C10.7730684,15.1245406 10.7545978,15.1169866 10.7365923,15.1085998 L10.7202551,15.1007996 C10.7126869,15.0970035 10.7051803,15.093043 10.6977403,15.0889181 C10.6811464,15.0796309 10.6649121,15.0696403 10.6491899,15.0589518 C10.6374097,15.0509402 10.6259506,15.0425304 10.6147259,15.0336772 C10.5994603,15.0217775 10.5850583,15.0093703 10.5712491,14.9963415 C10.5671641,14.9921365 10.5626859,14.9877624 10.558258,14.9833069 L7.22497559,11.6500244 C6.98083496,11.4058838 6.98083496,11.0100708 7.22497559,10.7657776 C7.46911621,10.521637 7.86492922,10.521637 8.10922242,10.7657776 L10.375,13.032 L10.375,1.625 C10.375,1.27999879 10.6549988,1 11,1 Z" id="Combined-Shape"></path>
                    </g>
                </g>
            </g>
        </g>
    </g>
</svg>