<svg width="16" height="16" viewBox="0 0 16 16" xmlns="http://www.w3.org/2000/svg" xmlns:xlink="http://www.w3.org/1999/xlink">
    <defs>
        <path d="M0 8c0 4.417 3.583 8 8 8s8-3.583 8-8A8 8 0 0 0 0 8" id="a"/>
    </defs>
    <g fill="none" fill-rule="evenodd">
        <use fill="#453A2D" xlink:href="#a"/>
        <path d="M7.571 6.399c.434 0 .78.093 1.04.275l.106.084c.234.21.367.474.397.793l.006.14c0 .062-.006.164-.018.304l-.01.113a3.023 3.023 0 0 1-.058.377l-.045.173-.512 1.815a4.297 4.297 0 0 0-.079.318l-.034.18c-.025.14-.04.255-.047.344l-.003.08c0 .2.037.348.112.443l.05.05c.09.073.234.115.434.128l.127.003c.082 0 .173-.01.27-.03l.153-.036c.117-.032.211-.062.281-.089l.062-.026-.138.56c-.343.136-.628.244-.855.326l-.13.046c-.197.068-.418.11-.665.123l-.19.005c-.436 0-.788-.094-1.054-.28l-.108-.085a1.163 1.163 0 0 1-.408-.79l-.007-.137.008-.22.023-.226c.013-.101.033-.21.058-.329l.041-.185.516-1.82a9.53 9.53 0 0 0 .082-.337l.034-.158c.02-.104.034-.202.04-.294l.006-.135c0-.185-.031-.326-.092-.422l-.052-.064c-.08-.075-.22-.12-.422-.132L6.36 7.28c-.088 0-.178.01-.27.027l-.139.035a7.515 7.515 0 0 0-.252.08l-.107.039.137-.561c.225-.092.443-.175.655-.249l.312-.104c.232-.074.453-.12.666-.139L7.57 6.4zm1.14-3.323c.289 0 .541.082.758.248l.105.09c.205.192.322.418.351.677l.008.133c0 .27-.088.507-.264.71l-.095.097c-.204.191-.445.3-.722.327l-.141.007c-.336 0-.625-.111-.867-.334a1.067 1.067 0 0 1-.354-.675l-.007-.132c0-.27.09-.508.266-.712l.095-.099c.207-.193.45-.302.726-.33l.14-.007z" fill="#FFF"/>
    </g>
</svg>
