<svg width="70" height="74" viewBox="0 0 70 74" xmlns="http://www.w3.org/2000/svg" xmlns:xlink="http://www.w3.org/1999/xlink">
    <defs>
        <path id="393ji57m4b" d="M0 0h70v64L35.865 74 0 64z"/>
        <path d="M2.083 24.642c0 12.456 10.102 22.558 22.56 22.558C37.097 47.2 47.2 37.098 47.2 24.642c0-12.459-10.104-22.559-22.556-22.559-12.459 0-22.56 10.1-22.56 22.559m22.118-8.371c-.677-.627-1.019-1.39-1.019-2.277 0-.89.344-1.652 1.02-2.286.68-.635 1.497-.95 2.443-.95.95 0 1.762.315 2.435.95.673.634 1.01 1.396 1.01 2.286 0 .89-.337 1.65-1.01 2.277-.673.627-1.485.94-2.435.94-.946 0-1.763-.313-2.444-.94M18.24 21.54c.952-.388 1.862-.721 2.729-.996.868-.277 1.691-.417 2.464-.417 1.396 0 2.475.342 3.232 1.013.754.675 1.135 1.552 1.135 2.629 0 .22-.027.614-.08 1.177a8.098 8.098 0 0 1-.289 1.55l-1.446 5.119c-.118.408-.225.879-.318 1.404-.092.525-.14.927-.14 1.196 0 .679.15 1.143.456 1.39.302.247.832.37 1.582.37.35 0 .747-.063 1.193-.185.442-.121.765-.232.967-.325l-.388 1.579a77.403 77.403 0 0 1-2.779 1.048c-.691.241-1.495.36-2.41.36-1.406 0-2.5-.344-3.277-1.03-.781-.684-1.169-1.553-1.169-2.612 0-.408.03-.829.085-1.258.059-.427.155-.906.282-1.448l1.454-5.133c.13-.492.237-.96.327-1.396.085-.44.13-.842.13-1.21 0-.652-.136-1.109-.407-1.37-.27-.255-.788-.383-1.552-.383-.373 0-.76.057-1.154.173a15.6 15.6 0 0 0-1.013.336" id="y3p9q1t6pc"/>
        <filter x="-8.6%" y="-8.1%" width="117.1%" height="116.2%" filterUnits="objectBoundingBox" id="6catfyis1a">
            <feOffset in="SourceAlpha" result="shadowOffsetOuter1"/>
            <feGaussianBlur stdDeviation="2" in="shadowOffsetOuter1" result="shadowBlurOuter1"/>
            <feColorMatrix values="0 0 0 0 0 0 0 0 0 0 0 0 0 0 0 0 0 0 0.23208042 0" in="shadowBlurOuter1"/>
        </filter>
    </defs>
    <g fill="none" fill-rule="evenodd">
        <g>
            <use fill="#000" filter="url(#6catfyis1a)" xlink:href="#393ji57m4b"/>
            <use fill="#6F655B" xlink:href="#393ji57m4b"/>
        </g>
        <path d="m34.644 11.042.628.008c12.325.322 22.302 10.102 22.938 22.362l.024.615.008.628-.008.615C57.91 47.596 48.13 57.574 35.873 58.21l-.615.024-.628.008-.614-.009C21.248 57.9 11.042 47.44 11.042 34.642c0-13.034 10.568-23.6 23.602-23.6zm-.009 2.08-.583.011c-11.61.314-20.927 9.824-20.927 21.509 0 11.47 8.993 20.88 20.342 21.485l.59.024.573.007.587-.007c11.225-.294 20.317-9.197 20.91-20.334l.024-.588.008-.574-.008-.587c-.294-11.228-9.196-20.318-20.332-20.912l-.588-.023-.596-.01zm-1.202 15.963c1.282 0 2.375.258 3.286.81l.333.22.341.28.271.267c.6.642.973 1.414 1.116 2.318l.047.395.015.412-.01.294-.045.64-.031.341-.044.39-.062.401-.084.416-.132.51-1.518 5.379-.129.552-.093.479-.048.29a8.81 8.81 0 0 0-.063.482l-.015.22.008.24c.013.19.042.309.03.326l-.017-.007-.015.006.074.055c.078.045.237.088.458.111l.176.014.238.008.23-.009.215-.026.217-.04.292-.071.587-.18.118-.043.136-.058a1.042 1.042 0 0 1 1.45 1.04l-.028.166-.388 1.579a1.042 1.042 0 0 1-.452.63l-.179.091-1.778.686-.723.265-.356.124-.467.142c-.384.1-.79.171-1.23.215l-.453.034-.592.014-.488-.014c-1.072-.061-2.003-.319-2.803-.804l-.336-.222-.341-.278-.28-.268a4.266 4.266 0 0 1-1.147-2.314l-.048-.394-.015-.413.012-.459.032-.463.053-.47.053-.346.094-.503.162-.725 1.446-5.105.118-.465.105-.448.088-.408.048-.269.052-.42.014-.302-.009-.268-.037-.32-.038-.057-.031-.014a1.566 1.566 0 0 0-.346-.069l-.17-.013-.251-.008-.217.006-.237.025-.094.015-.335.081-.544.17-.421.15a1.042 1.042 0 0 1-1.393-1.056l.027-.17.386-1.582c.064-.262.226-.487.45-.63l.177-.092.715-.283.713-.268.701-.248.694-.229.543-.157c.381-.1.756-.174 1.134-.225l.572-.058.506-.018zm.01 2.082-.406.016c-.273.02-.555.058-.838.114l-.424.097-.48.139-.337.109.052.009c.293.055.563.142.819.274l.252.146.131.102.156.15.185.226c.215.31.349.677.417 1.12l.039.348.011.387-.016.417-.03.312-.047.335-.059.326-.1.464-.113.485-.13.512-1.44 5.08-.138.624-.08.42-.044.288-.043.382-.027.373-.01.345.011.301c.038.444.175.823.403 1.14l.188.227.175.173.23.185c.406.292.932.485 1.572.568l.398.037.4.013.507-.013c.342-.019.66-.058.937-.113l.263-.06.384-.115.45-.162-.18-.028a3.184 3.184 0 0 1-.643-.204l-.302-.155-.28-.211-.188-.19c-.292-.344-.462-.774-.538-1.303l-.035-.33-.009-.346.007-.205.029-.331.067-.496.055-.328.101-.522.076-.343.083-.336 1.519-5.384.117-.453.059-.295.045-.29.067-.657.048-.73-.011-.309a2.332 2.332 0 0 0-.393-1.16l-.181-.225-.16-.164-.223-.18c-.476-.344-1.133-.549-1.982-.594l-.365-.012zm3.203-11.45c.93 0 1.775.243 2.536.747l.32.232.326.286.27.28c.502.567.827 1.22.965 1.97l.053.384.016.428-.02.38a3.952 3.952 0 0 1-.8 2.032l-.25.303-.305.305-.297.25a4.394 4.394 0 0 1-2.03.875l-.39.048-.438.014-.394-.017a4.494 4.494 0 0 1-2.714-1.199c-.678-.628-1.112-1.385-1.28-2.274l-.055-.39-.016-.428.02-.38c.074-.74.34-1.417.806-2.035l.25-.303.307-.31.299-.253a4.415 4.415 0 0 1 2.037-.881l.391-.049.393-.015zm.008 2.08-.267.014c-.39.034-.738.145-1.034.322l-.213.145-.192.158-.205.208c-.24.27-.394.56-.465.853l-.038.22-.016.226.012.274c.049.491.264.91.672 1.287.34.314.717.513 1.123.603l.31.048.261.015.305-.012a2.4 2.4 0 0 0 1.03-.317l.21-.143.19-.156.204-.206a1.95 1.95 0 0 0 .457-.844l.037-.221.016-.227-.012-.276a1.91 1.91 0 0 0-.322-.902l-.146-.188-.17-.18-.222-.193a2.316 2.316 0 0 0-1.24-.491l-.285-.016z" fill="#FFF"/>
    </g>
</svg>
