<svg width="24" height="24" viewBox="0 0 24 24" xmlns="http://www.w3.org/2000/svg">
    <path d="M20.384 2C21.822 2 23 3.155 23 4.566v10.87c0 1.412-1.178 2.566-2.616 2.566H5.374l-3.278 3.782C1.72 22.216 1 21.956 1 21.388V4.566C1 3.155 2.18 2 3.616 2zm0 1.222H3.616c-.77 0-1.371.587-1.371 1.343v15.163l2.37-2.733a.625.625 0 0 1 .473-.214h15.296c.772 0 1.373-.589 1.373-1.346V4.565c0-.756-.601-1.343-1.373-1.343zm-9.114 8.493a.616.616 0 0 1 .63.61c0 .34-.284.616-.63.61H5.017a.617.617 0 0 1-.63-.61c0-.342.282-.616.63-.61zm7.715-3.923a.617.617 0 0 1 .631.61.617.617 0 0 1-.63.61H5.016a.616.616 0 0 1-.63-.61c0-.34.282-.614.63-.61z" fill="#FFF" fill-rule="evenodd"/>
</svg>
