<?xml version="1.0" encoding="UTF-8"?>
<svg width="24px" height="24px" viewBox="0 0 24 24" version="1.1" xmlns="http://www.w3.org/2000/svg" xmlns:xlink="http://www.w3.org/1999/xlink">
    <title>F32E8FB4-2AA0-4C59-B599-00F6B526AA91</title>
    <g id="Overview-New" stroke="none" stroke-width="1" fill="none" fill-rule="evenodd">
        <g id="19.1.1-Overview" transform="translate(-883.000000, -1076.000000)" fill="#FFFFFF">
            <g id="Apartment/Apt-Case" transform="translate(493.000000, 1068.000000)">
                <g id="Icons/24/stroke/Payments/Document" transform="translate(390.000000, 8.000000)">
                    <path d="M17.6254077,1 C18.2466004,1 18.7502146,1.49246218 18.7502146,2.10006712 L18.7502146,2.10006712 L18.7502146,3.19996644 L19.8751931,3.19996644 C20.4963859,3.19996644 21,3.69242858 21,4.30003356 L21,4.30003356 L21,21.8999329 C21,22.5075378 20.4963859,23 19.8751931,23 L19.8751931,23 L6.37630884,23 C5.75494439,23 5.25133027,22.5075378 5.25133027,21.8999329 L5.25133027,21.8999329 L5.25133027,20.8000336 L4.1263517,20.8000336 C3.82785651,20.8003693 3.54137659,20.6847229 3.3300784,20.4782715 C3.11878016,20.2719879 3,19.9920197 3,19.6999664 L3,19.6999664 L3,5.03486634 C3,5.0268097 3.00480613,5.01976012 3.00480613,5.01170348 C3.00669427,4.9796448 3.01321686,4.94792174 3.02403067,4.9175415 C3.02815021,4.90579226 3.03106821,4.89437864 3.0363893,4.88296511 C3.05458397,4.84318541 3.07998777,4.8067627 3.1113993,4.77554323 L3.1113993,4.77554323 L6.86104174,1.10893248 C6.89279654,1.0780487 6.9302157,1.05320739 6.97123949,1.0355835 L6.97123949,1.0355835 L7.00539738,1.02349854 C7.03698054,1.01292418 7.06993689,1.00654603 7.10323651,1.00436399 C7.11113232,1.00402832 7.1183415,1 7.12623731,1 L7.12623731,1 Z M19.8751931,3.93328857 L18.7502146,3.93328857 L18.7502146,19.6999664 C18.7502146,20.3075714 18.2466004,20.8000336 17.6254077,20.8000336 L17.6254077,20.8000336 L6.00125874,20.8000336 L6.00125874,21.8999329 C6.00125874,22.1025238 6.16913014,22.2666779 6.37630884,22.2666779 L6.37630884,22.2666779 L19.8751931,22.2666779 C20.0822002,22.2666779 20.2500715,22.1025238 20.2500715,21.8999329 L20.2500715,21.8999329 L20.2500715,4.30003356 C20.2500715,4.09744265 20.0822002,3.93328857 19.8751931,3.93328857 L19.8751931,3.93328857 Z M17.6254077,1.73332213 L7.50111573,1.73332213 L7.50111573,4.30003356 C7.50111573,4.9074707 6.99750157,5.39993288 6.37630884,5.39993288 L6.37630884,5.39993288 L3.75147329,5.39993288 L3.75147329,19.6999664 C3.75147329,19.9025574 3.91934469,20.0667114 4.1263517,20.0667114 L4.1263517,20.0667114 L17.6254077,20.0667114 C17.8324147,20.0667114 18.0002861,19.9025574 18.0002861,19.6999664 L18.0002861,19.6999664 L18.0002861,2.10006712 C18.0002861,1.89747621 17.8324147,1.73332213 17.6254077,1.73332213 L17.6254077,1.73332213 Z M10.1259512,16.3999329 C10.3329582,16.3999329 10.5008297,16.5640869 10.5008297,16.7666779 C10.5008297,16.9437981 10.3723031,17.0916185 10.2014929,17.1258062 L10.1259512,17.133255 L9.75090114,17.133255 C9.54389412,17.133255 9.37602272,16.9691009 9.37602272,16.7666779 C9.37602272,16.5894108 9.50454926,16.441572 9.67535942,16.4073821 L9.75090114,16.3999329 L10.1259512,16.3999329 Z M7.87616578,16.3999329 C8.08317284,16.3999329 8.2510442,16.5640869 8.2510442,16.7666779 C8.2510442,16.9437981 8.12251769,17.0916185 7.9517075,17.1258062 L7.87616578,17.133255 L5.62620869,17.133255 C5.41920167,17.133255 5.25133027,16.9691009 5.25133027,16.7666779 C5.25133027,16.5894108 5.37985681,16.441572 5.55066698,16.4073821 L5.62620869,16.3999329 L7.87616578,16.3999329 Z M16.1253791,14.5667114 C16.3325577,14.5667114 16.5004291,14.7308655 16.5004291,14.9332886 C16.5004291,15.1105557 16.3719026,15.2583945 16.2009774,15.2925844 L16.1253791,15.3000336 L5.62620869,15.3000336 C5.41920167,15.3000336 5.25133027,15.1358795 5.25133027,14.9332886 C5.25133027,14.7561684 5.37985681,14.6083479 5.55066698,14.5741603 L5.62620869,14.5667114 L16.1253791,14.5667114 Z M6.75118726,12.7333221 C6.95836591,12.7333221 7.12623731,12.8974762 7.12623731,13.1000671 C7.12623731,13.2771873 6.99771077,13.4250078 6.82678562,13.4591954 L6.75118726,13.4666443 L5.62620869,13.4666443 C5.41920167,13.4666443 5.25133027,13.3024902 5.25133027,13.1000671 C5.25133027,12.9228001 5.37985681,12.7749612 5.55066698,12.7407713 L5.62620869,12.7333221 L6.75118726,12.7333221 Z M13.1256652,12.7333221 C13.3328439,12.7333221 13.5007152,12.8974762 13.5007152,13.1000671 C13.5007152,13.2771873 13.3721887,13.4250078 13.2012635,13.4591954 L13.1256652,13.4666443 L8.62609425,13.4666443 C8.41891555,13.4666443 8.2510442,13.3024902 8.2510442,13.1000671 C8.2510442,12.9228001 8.3795707,12.7749612 8.55049587,12.7407713 L8.62609425,12.7333221 L13.1256652,12.7333221 Z M16.1253791,12.7333221 C16.3325577,12.7333221 16.5004291,12.8974762 16.5004291,13.1000671 C16.5004291,13.2771873 16.3719026,13.4250078 16.2009774,13.4591954 L16.1253791,13.4666443 L15.0005722,13.4666443 C14.7933935,13.4666443 14.6255221,13.3024902 14.6255221,13.1000671 C14.6255221,12.9228001 14.7540486,12.7749612 14.9249738,12.7407713 L15.0005722,12.7333221 L16.1253791,12.7333221 Z M7.50111573,10.8999329 C7.70829442,10.8999329 7.87616578,11.0640869 7.87616578,11.2666779 C7.87616578,11.4437981 7.74763927,11.5916185 7.5767141,11.6258062 L7.50111573,11.633255 L5.62620869,11.633255 C5.41920167,11.633255 5.25133027,11.4691009 5.25133027,11.2666779 C5.25133027,11.0894108 5.37985681,10.941572 5.55066698,10.9073821 L5.62620869,10.8999329 L7.50111573,10.8999329 Z M16.1253791,10.8999329 C16.3325577,10.8999329 16.5004291,11.0640869 16.5004291,11.2666779 C16.5004291,11.4437981 16.3719026,11.5916185 16.2009774,11.6258062 L16.1253791,11.633255 L9.37602272,11.633255 C9.16884407,11.633255 9.00097267,11.4691009 9.00097267,11.2666779 C9.00097267,11.0894108 9.12949921,10.941572 9.30042435,10.9073821 L9.37602272,10.8999329 L16.1253791,10.8999329 Z M16.1253791,9.06671143 C16.3325577,9.06671143 16.5004291,9.2308655 16.5004291,9.43328857 C16.5004291,9.61055566 16.3719026,9.75839447 16.2009774,9.79258438 L16.1253791,9.80003356 L14.2506437,9.80003356 C14.043465,9.80003356 13.8755936,9.63587953 13.8755936,9.43328857 C13.8755936,9.25616838 14.0041201,9.1083479 14.1750453,9.07416028 L14.2506437,9.06671143 L16.1253791,9.06671143 Z M12.3757367,9.06671143 C12.5829153,9.06671143 12.7507867,9.2308655 12.7507867,9.43328857 C12.7507867,9.61055566 12.6222602,9.75839447 12.4513351,9.79258438 L12.3757367,9.80003356 L5.62620869,9.80003356 C5.41920167,9.80003356 5.25133027,9.63587953 5.25133027,9.43328857 C5.25133027,9.25616838 5.37985681,9.1083479 5.55066698,9.07416028 L5.62620869,9.06671143 L12.3757367,9.06671143 Z M16.1253791,7.23332213 C16.3325577,7.23332213 16.5004291,7.39747621 16.5004291,7.60006712 C16.5004291,7.77718734 16.3719026,7.9250078 16.2009774,7.95919541 L16.1253791,7.96664427 L5.62620869,7.96664427 C5.41920167,7.96664427 5.25133027,7.80249023 5.25133027,7.60006712 C5.25133027,7.42280007 5.37985681,7.27496123 5.55066698,7.24077131 L5.62620869,7.23332213 L16.1253791,7.23332213 Z M6.75118726,2.25180052 L4.28169284,4.66661071 L6.37630884,4.66661071 C6.58331586,4.66661071 6.75118726,4.50245668 6.75118726,4.30003356 L6.75118726,4.30003356 L6.75118726,2.25180052 Z" id="Combined-Shape"></path>
                </g>
            </g>
        </g>
    </g>
</svg>