<?xml version="1.0" encoding="UTF-8"?>
<svg width="22px" height="22px" viewBox="0 0 22 22" version="1.1" xmlns="http://www.w3.org/2000/svg" xmlns:xlink="http://www.w3.org/1999/xlink">
    <title>0C9DF399-67DA-4E1E-9F0E-26926C539BAA</title>
    <g id="Overview-New" stroke="none" stroke-width="1" fill="none" fill-rule="evenodd">
        <g id="19.1.4-Overview-Tooltip" transform="translate(-49.000000, -739.000000)" fill="#453A2D">
            <g id="Apartment/Tichtovot" transform="translate(29.000000, 678.000000)">
                <g id="Apartments/Case" transform="translate(0.000000, 40.000000)">
                    <g id="Icons/24/stroke/PDF" transform="translate(20.000000, 21.000000)">
                        <path d="M14.4120925,0 L19.25,5.50001074 L19.25,20.0000156 C19.25,21.1045725 18.3835904,22 17.3148287,22 L17.3148287,22 L3.76850466,22 C2.69974294,22 1.83333333,21.1045725 1.83333333,20.0000156 L1.83333333,20.0000156 L1.83333333,1.99998437 C1.83333333,0.89542753 2.69978452,0 3.76854624,0 L3.76854624,0 L14.4120925,0 Z M12.4895781,0.916666667 L3.72396618,0.916666667 C3.18607303,0.916666667 2.75,1.36813075 2.75,1.92500867 L2.75,1.92500867 L2.75,20.0749913 C2.75,20.6318692 3.18607303,21.0833333 3.72396618,21.0833333 L3.72396618,21.0833333 L17.3593253,21.0833333 C17.8972185,21.0833333 18.3333333,20.6318692 18.3333333,20.0749913 L18.3333333,20.0749913 L18.3333333,6.96667533 L13.4635443,6.96667533 C12.9256093,6.96667533 12.4895781,6.51521125 12.4895781,5.95833333 L12.4895781,5.95833333 L12.4895781,0.916666667 Z M6.69560443,12.8396143 C7.11862616,12.8049094 7.54078791,12.9148225 7.88591317,13.14951 C8.15834713,13.3823506 8.31029277,13.7163422 8.30200977,14.0641642 C8.31762527,14.4098815 8.1888992,14.747524 7.94384895,15.0037732 C7.59637005,15.2977768 7.13908474,15.4472054 6.67451219,15.4185996 C6.57457296,15.425386 6.47422638,15.425386 6.37428716,15.4185996 L6.37428716,15.4185996 L6.37428716,16.8380208 L5.5,16.8380208 L5.5,12.9245726 C5.89509487,12.8625505 6.29521387,12.8341165 6.69560443,12.8396143 Z M15.7431771,12.8333333 L15.7431771,13.5757088 L14.2314651,13.5757088 L14.2314651,14.489769 L15.6423932,14.489769 L15.6423932,15.2270669 L14.2314651,15.2270669 L14.2314651,16.8380208 L13.3403646,16.8380208 L13.3403646,12.8333333 L15.7431771,12.8333333 Z M10.3286848,12.837927 C10.859317,12.8036096 11.3845347,12.9624331 11.8085956,13.2854475 C12.2328663,13.6519503 12.4593987,14.19938 12.4191039,14.7607986 C12.4548655,15.3497304 12.2358045,15.9253916 11.8183335,16.33944 C11.3387833,16.7010403 10.7454422,16.8757123 10.1479458,16.8312096 C9.83763376,16.8333228 9.52753162,16.8136283 9.21994792,16.7722108 L9.21994792,16.7722108 L9.21994792,12.9215227 C9.58667265,12.8632846 9.95746884,12.8353067 10.3286848,12.837927 Z M10.5338573,13.5195973 L10.4166198,13.5215273 C10.2919577,13.5184844 10.1673796,13.5300222 10.0454039,13.5559715 L10.0454039,13.5559715 L10.0454039,16.1181521 C10.139593,16.127619 10.2344957,16.127619 10.3286848,16.1181521 L10.3286848,16.1181521 C11.0662057,16.1279571 11.5497434,15.6902838 11.5546124,14.7607986 C11.5661971,14.6827393 11.5692612,14.6036656 11.5638046,14.5249724 C11.5222086,13.9288982 11.0086177,13.4796449 10.4166198,13.5215273 Z M6.76404107,13.5193662 C6.64183278,13.5161019 6.51966976,13.5278706 6.40062983,13.5543717 L6.40062983,13.5543717 L6.40062983,14.743916 C6.49857751,14.7548257 6.59756623,14.7548257 6.69555917,14.743916 L6.69555917,14.743916 L6.66921649,14.7488984 C6.71619879,14.7567586 6.76395055,14.7598511 6.81161178,14.7580901 C7.18077134,14.7444744 7.46836818,14.4494399 7.45402002,14.0991267 C7.45402002,13.7392783 7.20648034,13.5193662 6.76404107,13.5193662 Z M14.0188789,0.916666667 L13.5605574,0.916666667 L13.5605574,5.77270664 L18.1438908,5.77270664 L14.0188789,0.916666667 Z" id="Combined-Shape"></path>
                    </g>
                </g>
            </g>
        </g>
    </g>
</svg>