<svg width="18" height="18" viewBox="0 0 18 18" xmlns="http://www.w3.org/2000/svg">
    <path d="m15.346 2.225.274 1.62H17l.276 11.66-14.622.27-.276-1.621L1 14.155.724 2.495l14.622-.27zM13.95 11.13l-1.976 2.183-.617.68-1.077 1.191h6.395v-1.044l-2.725-3.01zm-7.7-3.645-3.275 3.616v4.082l6.501.001 1.872-2.068-5.098-5.63zm8.775-4.671h-13.7v10.75h1.05l.276-9.72h12.374v-1.03zm1.65 1.62h-13.7v5.786l3.482-3.394 5.295 5.848 2.405-2.202 2.517 2.78.001-8.818zm-4.65 1.84c.386 0 .736.154.99.403a1.359 1.359 0 0 1 0 1.944 1.409 1.409 0 0 1-.99.403c-.386 0-.736-.154-.99-.403a1.359 1.359 0 0 1 0-1.944c.254-.249.604-.403.99-.403zm0 .59c-.22 0-.42.088-.566.23a.775.775 0 0 0 0 1.11.805.805 0 0 0 1.132 0 .775.775 0 0 0 0-1.11.805.805 0 0 0-.566-.23z" fill="#FFF" fill-rule="nonzero" stroke="#FFF" stroke-width=".05" stroke-linejoin="round"/>
</svg>
