<?xml version="1.0" encoding="UTF-8"?>
<svg width="24px" height="24px" viewBox="0 0 24 24" version="1.1" xmlns="http://www.w3.org/2000/svg" xmlns:xlink="http://www.w3.org/1999/xlink">
    <title>D280C046-9F9D-4FEB-B2C4-98CCB6EF3393</title>
    <g id="Overview-New" stroke="none" stroke-width="1" fill="none" fill-rule="evenodd">
        <g id="19.1.2-Overview---Change-Project" transform="translate(-794.000000, -829.000000)" fill="#FFFFFF">
            <g id="Apartment/Matt" transform="translate(493.000000, 678.000000)">
                <g id="BTN/Icon+Text" transform="translate(90.000000, 140.000000)">
                    <g id="Group" transform="translate(20.000000, 11.000000)">
                        <g id="Icons/24/stroke/Add" transform="translate(191.000000, 0.000000)">
                            <path d="M12,0 C18.6167742,0 24,5.38322581 24,12 C24,18.6167742 18.6167742,24 12,24 C5.38322581,24 0,18.6167742 0,12 C0,5.38322581 5.38322581,0 12,0 Z M12,1.29032258 C6.09445161,1.29032258 1.29032258,6.09445161 1.29032258,12 C1.29032258,17.9055484 6.09445161,22.7096774 12,22.7096774 C17.9055484,22.7096774 22.7096774,17.9055484 22.7096774,12 C22.7096774,6.09445161 17.9055484,1.29032258 12,1.29032258 Z M12,6 C12.2761424,6 12.5,6.22385763 12.5,6.5 L12.5,11.5 L17.5,11.5 C17.7761424,11.5 18,11.7238576 18,12 C18,12.2761424 17.7761424,12.5 17.5,12.5 L12.5,12.5 L12.5,17.5 C12.5,17.7761424 12.2761424,18 12,18 C11.7238576,18 11.5,17.7761424 11.5,17.5 L11.5,12.5 L6.5,12.5 C6.22385763,12.5 6,12.2761424 6,12 C6,11.7238576 6.22385763,11.5 6.5,11.5 L11.5,11.5 L11.5,6.5 C11.5,6.22385763 11.7238576,6 12,6 Z" id="Combined-Shape"></path>
                        </g>
                    </g>
                </g>
            </g>
        </g>
    </g>
</svg>