<svg width="24" height="24" viewBox="0 0 24 24" xmlns="http://www.w3.org/2000/svg">
    <g fill="none" fill-rule="evenodd">
        <path d="M12 1c6.065 0 11 4.935 11 11 0 5.972-4.784 10.848-10.72 10.997L12 23l-.28-.003C5.785 22.847 1 17.972 1 12 1 5.935 5.935 1 12 1zm0 2.477c-2.831 0-5.055 2.225-5.055 5.055 0 2.406 1.606 4.374 3.825 4.91-3.588.336-7.293 2.09-7.293 4.692v.352l.206.286.188.253C5.786 21.52 8.801 23 12 23c3.305 0 6.415-1.58 8.318-4.23l.205-.285v-.351l-.006-.172c-.159-2.507-3.78-4.192-7.288-4.52 2.22-.536 3.826-2.504 3.826-4.91 0-2.83-2.224-5.055-5.055-5.055z" fill="#FFF"/>
        <circle stroke="#FFF" stroke-width="2" cx="12" cy="12" r="10"/>
    </g>
</svg>
