<svg width="18" height="18" viewBox="0 0 18 18" xmlns="http://www.w3.org/2000/svg">
    <path d="M9.21 17.247 9 17.25l-.21-.003-.073-.003h-.011l.085.003C4.338 17.136.75 13.48.75 9 .75 4.451 4.451.75 9 .75c4.549 0 8.25 3.701 8.25 8.25 0 4.453-3.546 8.093-7.962 8.245h-.004a2.659 2.659 0 0 1-.075.002zM9 10.748c-2.52 0-5.545 1.19-5.678 2.746l-.005.106v.035l.021.029c1.207 1.68 3.132 2.73 5.213 2.862l.224.01.225.004.261-.006h.052a6.976 6.976 0 0 0 5.217-2.693l.152-.205V13.6c0-1.536-2.838-2.742-5.34-2.845l-.17-.005L9 10.748zM9 1.46C4.843 1.46 1.46 4.843 1.46 9c0 1.508.445 2.915 1.211 4.095.43-1.671 2.955-2.784 5.407-3.013-1.665-.403-2.87-1.879-2.87-3.683A3.755 3.755 0 0 1 9 2.608a3.755 3.755 0 0 1 3.792 3.791c0 1.804-1.205 3.28-2.87 3.683 2.452.229 4.976 1.341 5.406 3.013a7.487 7.487 0 0 0 1.21-3.891L16.54 9c0-4.157-3.383-7.54-7.54-7.54zm0 1.857A3.045 3.045 0 0 0 5.918 6.4 3.045 3.045 0 0 0 9 9.481 3.045 3.045 0 0 0 12.082 6.4 3.045 3.045 0 0 0 9 3.317z" fill="#FFF" fill-rule="evenodd"/>
</svg>
